<?xml version="1.0" encoding="utf-8"?>
<!-- Generator: Adobe Illustrator 24.1.2, SVG Export Plug-In . SVG Version: 6.00 Build 0)  -->
<svg version="1.1" id="Layer_1" xmlns="http://www.w3.org/2000/svg" xmlns:xlink="http://www.w3.org/1999/xlink" x="0px" y="0px"
	 viewBox="0 0 488 512" xml:space="preserve">
<style type="text/css">
	.st0{fill:#28AABE;}
	.st1{fill:#ED64AD;}
	.st2{fill:#2EAABC;}
	.st3{fill:#2570AE;}
	.st4{fill:#216FAD;}
	.st5{fill:#F066AC;}
	.st6{fill:#226FA8;}
	.st7{fill:#3B77AB;}
	.st8{fill:#2C70A6;}
	.st9{fill:#D47CB5;}
	.st10{fill:#DA76B3;}
	.st11{fill:#E4C64C;}
	.st12{fill:#37AABC;}
	.st13{fill:#3C8CAF;}
	.st14{fill:#F7CE22;}
	.st15{fill:#F3C458;}
	.st16{fill:#E8CF4B;}
	.st17{fill:#3E7792;}
	.st18{fill:#E47AAF;}
	.st19{fill:#E9EDD3;}
	.st20{fill:#E6C439;}
	.st21{fill:#DE65AB;}
	.st22{fill:#91A06E;}
	.st23{fill:#55B0BF;}
	.st24{fill:#B382AF;}
	.st25{fill:#E2F1F3;}
	.st26{fill:#E1F0F3;}
	.st27{fill:#1A6FAE;}
	.st28{fill:#3FACBF;}
	.st29{fill:#2BA3B6;}
	.st30{fill:#DD8477;}
	.st31{fill:#1D6EAE;}
	.st32{fill:#E3E7F5;}
	.st33{fill:#2D75B0;}
	.st34{fill:#F361AB;}
	.st35{fill:#FBCD14;}
	.st36{fill:#E0F0F1;}
	.st37{fill:#F4C61C;}
	.st38{fill:#F163AC;}
	.st39{fill:#F5C914;}
	.st40{fill:#FACD17;}
	.st41{fill:#DFECE6;}
	.st42{fill:#E8F7FA;}
	.st43{fill:#EFF4E7;}
	.st44{fill:#D7EFF3;}
	.st45{fill:#F034CB;}
	.st46{fill:#5E04DE;}
	.st47{fill:#D133FC;}
	.st48{fill:#CF3BF8;}
	.st49{fill:#74B2FC;}
	.st50{fill:#7212D5;}
	.st51{fill:#6110D5;}
	.st52{fill:#73C0F6;}
	.st53{fill:#5E18D1;}
	.st54{fill:#6718DA;}
	.st55{fill:#EB43C6;}
	.st56{fill:#E9F7FB;}
</style>
<path class="st0" d="M459.3,325c0.4-0.2,0.6-0.2,1.7-0.2c0.7-0.7,0.9-1.5,0.9-2.2c0,0,0.2-0.6,0.9-0.2c3.1-0.2,5.3-0.7,7.5-1.1
	c0,0,0.2,0.2,0.2,0.7c0,0.9,0.2,1.3,0.2,1.7c-1.3,1.5-2.6,2.8-4.8,4.6c-5.9,5.3-11,10.3-16.3,15.4c-4.6,9-8.1,18.2-13.2,26.1
	c-12.5,19.1-25.7,37.6-38.5,56.5c-1.3,2-2.4,3.9-4.8,6.4c-2.8,1.7-4.6,2.6-6.4,3.7c-13.8,9.7-27.2,20.4-41.3,29.4
	c-30.5,19.4-64,29.5-100,29.4c9.9-9.9,19.4-19.4,29.7-28.8c1.8,0,3.1-0.2,5,0c10.5-3.5,20.7-6.6,30.3-11.6
	c12.3-6.4,23.9-14.3,36.3-21.5c2.2-1.1,3.7-2.4,5.7-3.7c12.8-9.4,24.6-18.7,34.7-30.6c16.3-19.1,27.2-40.9,38.2-63.5
	c2-1.8,3.5-3.5,5.3-5.1c0.7-0.7,1.1-1.3,1.5-1.8c0,0,0,0,0.7,0c2,0,3.5,0,5,0.6c5.7,6.6,7.2-2,11.2-2c1.8,0.7,3.5,0.9,5.9,1.3
	C456.6,327.2,458,326.1,459.3,325z"/>
<path class="st1" d="M110.5,460.7c-3.5-2.6-7-5.1-10.5-8.8c7.7-7.9,15.4-14.5,23.7-21.1c2.2,0.6,3.7,0.9,5,1.7
	c16.3,7.9,32.7,16,48.8,23.9c0.7,0.4,0.9,1.5,1.1,2.9c-5.1,7-9.9,13.2-14.9,19.4c0,0,0,0-0.7,0c-2.6,0.7-4.4,1.5-7.2,2
	c-7-1.8-13.4-3.9-19.6-5.7c0,0,0,0,0-0.6c-6.2-3.9-12.3-7-18.3-10.3c0,0,0.2,0-0.2-0.6C115.3,462.4,112.9,461.5,110.5,460.7z"/>
<path class="st2" d="M16.8,389.7c0,0,0-0.6,0.7-0.7c1.8-1.3,2.8-2.2,3.9-3.3c0,0,0.2-0.4,0.6-0.6c0.7-0.6,0.9-0.7,1.1-1.3
	c3.1-3.1,6.4-6.1,8.8-8.4c-3.3-10.3-6.4-19.6-9-29.9c9-7.5,17.8-13.8,26.8-19.6c6.1,14.1,11.7,27.5,17.6,41.5c0,2.6,0,4.6-0.6,6.8
	c-5.9,6.2-11.2,12.1-16.9,18c-1.7,0-2.8,0.2-4,0.2c-2.9-3.3-5.9-6.6-9-9.9c-0.9-1.1-1.8-2.2-2.8-3.3c-3.9,5.3-7.7,10.8-12.8,16.5
	c-1.8,1.5-2.8,2.6-3.5,3.9c-0.2,0.2-0.6,0.6-1.5,0.4C15.9,396.3,16.2,393,16.8,389.7z"/>
<path class="st3" d="M400.8,91.9c7,9.5,14.3,19.1,21.1,28.8c3.3,4.8,6.1,10.1,8.8,16.3c-1.7,3.3-3.1,5.3-4.4,7.5c0,0,0-0.2-0.6,0
	c-2,1.3-3.3,2.6-4.8,3.7c0,0,0,0-0.7,0c-3.5,3.9-6.4,7.5-9.7,11c-9.4-12.5-18.2-25-27-37.4c-2.4-3.5-5.1-7-7.2-10.6
	c1.8-2.4,3.1-4.4,5.1-6.6c5.7-4.4,10.8-8.8,16.5-13C399.1,91.8,399.9,91.9,400.8,91.9z"/>
<path class="st4" d="M291.3,26.8c1.3,0.4,2.6,0.7,5,1.8c1.1,0.6,1.7,0.7,1.7,0.7c9.5,3.3,18.9,6.6,29.4,10.8
	c3.9,3.1,6.6,5.3,9.2,7.3c-2,3.9-3.7,6.6-5.1,9.4c0,0.2-0.2,0.2-0.9,0.2c-3.7,2-6.6,4.2-9.7,6.6c0,0.4-0.6,0.7-1.1,0.9
	c-1.3,0.7-2,1.5-2.8,2.2c0,0,0,0-0.7,0c-7-1.7-13.4-3.1-20.5-4.6c-1.8-0.6-2.8-0.9-3.9-1.3c0,0-0.2,0-0.9,0
	c-1.7-0.2-2.8-0.6-3.9-1.3c-1.8-0.6-3.7-0.7-6.1-0.7c-5.1-0.9-9.7-1.8-14.9-2.9c-2.8-1.7-5-2.9-7-4.6c0.7-0.7,1.3-1.1,2.4-1.5
	c1.7-1.1,2.6-2,3.7-3.3c0.2-0.2,0.9-0.4,1.5-0.4c5.1-4.4,9.5-8.8,14.1-13c0.2,0.2,0-0.2,0.7,0c3.5-1.7,6.2-3.5,9.2-5.3
	C291.1,27,291.3,26.8,291.3,26.8z"/>
<path class="st5" d="M452,187.2c1.3,4.6,2.6,9,3.3,14.5c-8.6,7-16.5,13.2-24.8,18.5c-1.5-4.8-2.8-8.8-4-13.4
	c-0.6-1.1-0.9-1.7-1.1-2.8c0.2-1.1,0.2-1.7,0.6-2.9c-1.8-5.3-4-10.1-6.1-15c0-0.4-0.4-0.7-0.4-1.5c-0.6-1.7-1.1-2.8-1.7-4.6
	c-0.9-4.2-1.7-7.7-2.2-11.6c2-7,3.5-13.6,5.1-20.4c0,0,0,0,0.7,0.2c2-1.3,3.3-2.6,4.8-3.9c0,0,0.2,0.2,0.7,0
	c7.9-2.4,7.5,3.7,8.8,7.7c1.5,4.2,2.2,8.6,3.5,13c1.8,6.1,3.9,12.1,5.1,18.2c-3.9-1.3-7.2-2.4-12.8-4.4c2.9,4.6,4.2,6.6,6.2,9.7
	c-3.7-1.1-6.1-1.8-8.6-2.6c2.2,10.8,2.2,10.8,19.6,11c-1.3-4.8-2.6-9.2-3.3-13.4C448.1,184.8,450,186.1,452,187.2z"/>
<path class="st6" d="M430.1,330.5c-1.5,1.5-2.9,3.1-5.7,5c-2.2,0.4-3.3,0.4-4-0.4c2-4.6,4-8.4,6.6-12.3c12.5-0.6,7.5-11,10.1-16.9
	c0.6-1.1-4-4.4-6.4-7.5c0.4-2.4,0.9-3.9,1.5-5.7c0.2-1.1,0.2-1.8,0.2-2.6c0,0,0-0.2,0.4-0.2c0.4-0.4,0.7-0.6,0.6-0.7
	c-0.2-0.4-0.6-0.7-0.7-1.7c0-1.5,0.2-2.2,1.1-3.1c4.4-2.2,5.5-4,0.6-6.4c6.8-6.2,13-12.3,19.8-17.4c3.3-2.6,7.5-3.5,11.4-5.3
	c-0.4,10.1-0.6,20-1.1,31.2c-0.4,1.1-0.9,1.7-1.5,1.3c-6.2,3.5-11.7,7-16.7,10.3c4.4,1.8,8.3,3.3,11.7,5.3c-1.3,2-2.4,3.5-4,5.1
	c-4.4,3.7-8.3,7.2-12.3,11.2c-0.7,1.5-1.3,2.4-2.4,3.5c-2.6,1.8-4.8,3.5-6.8,5.1c0,0,0,0-0.4,0.2
	C430.7,329.4,430.5,329.9,430.1,330.5z"/>
<path class="st7" d="M45.6,393.2c1.1-0.7,2.2-0.7,4-0.2c7.2,9.5,13.4,18.7,20,27.3c3.3,4.2,7.2,8.1,11,11.9c3.5,3.7,7.3,7,11,10.5
	c-0.4,0.9-0.7,1.7-1.1,2.6c12.3,1.1,18-9,25.3-15.2c-1.8-3.9-3.3-7-4-9.9c4.2,3.5,7.9,7,11.6,10.3c-7.7,6.8-15.2,13.4-23.3,20.7
	c-6.8-4-11.2-0.7-16,3.9c-10.3,9.9-20.9,19.4-31.7,28.8c-2.2,1.8-6.1,1.8-9.4,2.6c-0.6-1.1-0.9-2.4-1.5-3.5
	c13-12.3,25.7-25.1,39.1-36.9c5.5-5,3.1-7.2-0.7-10.6C66,423.7,54,410.3,45.6,393.2z"/>
<path class="st8" d="M5.1,282.9c-0.2-8.6-0.4-17.4,0.2-27c2.4-2,4-3.3,5.7-4.6c10.1-7.5,20-15,29.9-21.8
	c-0.9,11.9-1.7,22.9-2.9,34.1c-5.1,2.6-9.7,4.8-14.1,7.3C17.5,274.9,11.3,278.9,5.1,282.9z"/>
<path class="st9" d="M4.9,283.7c6.4-4.6,12.5-8.6,18.9-12.5c4.4-2.6,9-5,14.3-6.6c1.3,7.7,1.7,14.7,1.5,21.5
	c-2-5.3-3.7-10.5-5.5-17.1c-6.4,4.4-13.8,8.6-19.6,14.1c-2.6,2.6-3.9,8.1-3.5,11.9c0.7,8.8,2.9,17.2,4.6,26.6
	c1.3,5.7,2.4,10.8,4,16.1c2.4,0.6,5,1.7,6.1,0.7c4.4-3.5,8.1-8.3,12.7-11.6c5.3-3.9,4.8-7.7,3.3-13.4c-1.5-5.7-0.6-12.1,0-18
	c2.9,10.1,5.1,19.8,7.5,29.7c-8.6,6.4-17.2,12.8-26.6,19.4c-4.2-3.3-7.7-4-12.1-0.2c-2,1.8-5.7,1.8-9.2,2.2
	c0.2-3.3,0.7-6.4,1.7-10.1c0.9-0.7,1.7-0.9,3.5-1.3c1.7-0.6,2-0.9,2.2-1.5c1.3-3.9,4-8.1,3.5-11.6C10.2,309.7,7.3,297.1,4.9,283.7z"
	/>
<path class="st10" d="M320.1,64.2c0,0,0.4-0.6,1.1-0.9c3.7-2.4,6.8-4.4,9.9-6.4c0,0,0.2,0,0.7-0.2c1.8-0.7,3.3-1.3,4.6-1.3
	c-4,4.8-8.1,8.8-12.1,13c16,12.7,31.2,9.5,40.2-7.3c-4.4-1.7-8.8-3.7-13.4-5.1c-3.7-1.3-7.5-2-11-3.7c1.3-1.5,2.4-2.4,3.5-3.3
	c5.1,2.2,10.5,4.4,16.7,7.2c9.5-7.9,19.8-16.9,30.6-25c2.6-2,7.3-1.3,11-1.8c-1.7,3.1-2.8,6.8-5.1,9c-8.4,7.7-17.6,14.9-26.2,22.2
	c-0.9,0.9-1.1,2.8-2,5.1c-8.6,7.5-16.9,13.9-25.5,20.2c-9.2-5.7-18-11-26.6-16.9c0.2-1.1,0.4-1.8,0.4-2.4c0,0,0,0,0.6,0
	C318.6,65.7,319.3,65,320.1,64.2z"/>
<path class="st11" d="M465.6,254.7c-4.2,2.2-8.6,3.3-11.7,5.7c-6.8,5.3-13,11.2-20,17.4c-0.6,0.4-0.9,0.2-0.9-0.6
	c-0.7-19.3-1.3-37.8-2-56.3c8.1-6.1,16-12.1,24.6-18.5c0.6,0.4,0.7,1.1,0.7,2.9c2,11.7,3.9,22,5.9,32.5c0.2,0.7,2.2,1.1,3.3,1.7
	c3.3-2.2,6.2-5,9.7-6.4c2.4-0.9,5.7-0.2,8.6-0.2c-0.9,2.4-1.1,5.3-2.6,7.2C476.2,245,470.9,249.5,465.6,254.7 M445,263.5
	c6.1-5.7,12.1-11.4,16.5-15.4c-3.1-12.7-5.9-24.4-9.4-38.7c-6.1,6.1-14.7,10.6-15.4,16.3c-2,14.5-0.7,29.7-0.7,45.7
	C439.5,268.1,441.5,266.1,445,263.5 M473.3,242.2c-0.6-0.9-0.9-2-1.5-2.9c-0.7,0.7-1.7,1.7-2.4,2.4
	C470.3,242,471.4,242.6,473.3,242.2 M476.7,237.6C476.7,237.6,476.9,237.4,476.7,237.6z"/>
<path class="st12" d="M343.6,86.1c8.1-6.4,16.3-13,25-19.8c6.2,4,11.9,8.4,18.5,13.4c3.5,3.7,6.1,7,7.9,10.1
	c-7.9-2.2-14.9-4.6-20-6.1c-5,6.1-9,11-13.4,16c-0.4,0-1.3,0-1.5-0.4c-0.6-0.4-0.9-0.6-1.7-1.1C353.3,93.8,348.3,89.9,343.6,86.1z"
	/>
<path class="st13" d="M245,495.4c36.3-0.4,69.9-10.5,100.4-29.9c14.3-9,27.5-19.6,41.3-29.4c1.7-1.1,3.5-2,5.9-3.1
	c-9.4,9.2-18.3,20.2-29.7,27.2c-18.2,11-37.8,19.6-56.9,29c-4,2-8.8,2.8-13.2,3.5c-16,2.8-32.1,5.1-49,7c-0.7-1.1-0.7-1.7-0.4-2.6
	C244.3,496.3,244.7,495.9,245,495.4z"/>
<path class="st14" d="M195.3,493.9c-0.7-0.2-1.5-0.4-3.1-1.3c-4.4-2-8.1-3.3-11.4-5.1c3.5-4.4,6.6-8.8,10.5-11.9
	c3.3-2.8,7.7-4,12.7-6.8c-5.1-3.5-7.7-5.1-9.5-7c10.8,1.5,20.9,2.8,30.8,4.8C214.9,476.1,205.2,484.9,195.3,493.9z"/>
<path class="st15" d="M5.1,236.7c3.5-19.1,6.8-38.2,10.5-57.2c0.4-1.5,2.2-2.8,4.4-4.8c4.8-3.3,8.6-6.2,13-9.2
	c0.4-0.2,1.3-0.6,1.7-0.6c0.7-0.4,1.1-0.7,1.8-1.7c8.6-5.9,16.7-11.6,25-17.1c4.8-3.1,9.7-5.7,14.7-7.7c-2.9,5.1-5.9,9.5-8.8,13.4
	c-1.3-0.9-2.4-1.3-4.2-1.7c-13.8,9.7-26.8,19.4-40.5,29.4c-2,3.1-3.5,6.2-5.3,9.7c-1.5,5.1-2.2,9.7-3.1,15c-0.6,3.3-1.1,5.9-1.8,9
	c-0.7,2-1.3,3.5-2.4,5.3c-0.7,2.8-0.9,5-1.1,7.5c0,0.4-0.2,1.3-0.7,1.7c-0.7,2-0.9,3.7-1.1,5.9c0,1.3,0,2-0.4,2.8
	C6,236.7,5.1,236.7,5.1,236.7z"/>
<path class="st16" d="M291.6,26.5c-0.6,0.6-0.7,0.7-0.9,0.4c-3.5,1.7-6.6,3.7-9.7,5.7c0,0,0.2,0.4-0.6,0.2c-1.8,0.2-2.9,0.6-4,0.2
	c0.9-2.4,1.7-4.2,2.9-6.8c-11.4-1.5-22-2.9-32.7-4.6c0-0.7,0-1.3,0.2-1.7c7.5,0.2,15.2-0.2,22.6,0.9c7.2,1.1,13-0.4,18.3-5.3
	c3.9-3.5,7.9-6.6,12.1-9.5c2-1.3,4.6-1.5,7-2.2c0.2,3.1,1.5,7.3,0,9C302.6,17.6,297.1,21.5,291.6,26.5z"/>
<path class="st17" d="M195.7,494.5c9.5-9.5,19.3-18.3,30.1-27.9c2.6-0.9,4.2-1.3,6.6-1.5c2.4,0,4,0,6.2,0c2,0,3.5-0.4,5.7-0.4
	c10.5-0.7,20.2-1.5,30.6-2.2c2,1.1,3.3,2.4,4.8,3.5c-1.3,0-2.6,0.2-5.3,0.2c-14.1,0.6-27,1.1-39.6,1.8c-1.7,0.2-3.9,0.6-5,1.7
	c-6.6,5.7-13.2,11.6-19.3,17.8c-1.5,1.7-2.2,5.1-1.7,7.3c0.4,1.3,3.9,2.4,5.9,2.4c9.4,0.4,18.9,0.2,28.3,0.4c0,0.6,0,1.1-0.2,2
	c-7.3,0.4-14.5,0.2-23.3-0.2c-4.2-0.4-6.8-0.4-9.5-0.4C205.6,497.6,200.8,496.3,195.7,494.5z"/>
<path class="st13" d="M398.2,426.2c12.5-19.1,25.7-37.6,38.2-56.7c5.1-7.9,8.6-17.1,13.4-25.5c0.6,0.4,0.7,0.7,0.7,1.1
	c-0.4,1.5-0.7,2.9-1.5,5.1c-0.6,1.3-0.6,1.7-0.4,1.8c-7.5,14.3-14.1,29.2-22.8,42.7c-7,11.4-16.3,21.3-24.6,31.7
	C401,427.1,399.5,426.6,398.2,426.2z"/>
<path class="st16" d="M4.9,237.4c0.2-0.7,1.1-0.7,1.8-0.4c0.6,2.9,0.6,5.5,0.2,9.7c4.4-2.6,7.7-4,10.3-6.2
	c9.7-8.4,23.9-13.2,24.6-29.9c1.5-7.5,2.4-14.5,3.9-21.5c1.3-0.2,2-0.2,2.8,0.6c0.2,2.4,0.2,3.9,0.4,6.2
	c-2.6,11.6-5.3,22.2-7.9,32.8c-10.1,7.5-20,15-30.1,22.6c-1.7,1.3-3.3,2.4-5.7,3.7C4.7,249.4,4.7,243.7,4.9,237.4z"/>
<path class="st18" d="M129.4,46.1c7.9-4.4,15.4-9.7,23.9-12.8c27.3-10.3,55.6-15,85.5-13.6c-1.7,2.6-4,4.4-6.8,5.5
	c-3.5-1.5-6.6-2.9-9.7-3.1c-19.6-0.4-38.3,4.4-56.7,10.8C153.5,37.1,141.6,41.9,129.4,46.1C129.6,46.3,129.4,46.1,129.4,46.1z"/>
<path class="st18" d="M28,137.1c1.1-1.7,2-3.7,3.3-5.1c9.5-10.3,19.8-20.2,29-30.8c10.8-12.5,21.5-25,36.9-33.4
	c0.7,0,1.1,0.4,0.7,0.9c-2.2,2-4.4,3.1-6.1,5c-13.6,15-26.6,30.5-40.5,45.1c-6.8,7.2-15,12.7-22.9,18.9
	C28.2,137.4,28,137.1,28,137.1z"/>
<path class="st19" d="M169.1,492.6c-5,5.5-9.7,11.2-14.9,16.3c-4,4-8.8,4.2-12.7-0.6c-3.1-4-6.1-8.3-9-12.5c0.6-0.6,1.1-1.1,1.7-1.7
	c1.1,0.6,2.6,0.9,3.3,1.8c4,4.8,6.4,3.3,8.1-1.8c1.1-3.3,2.6-6.6,4.4-10.5c2.8-0.2,4.8,0.2,7.3,0.7c0.9,0.7,1.3,1.1,1.7,2.2
	c-3.5,4.4-7.2,8.1-10.5,12.1c-1.3,1.5-1.3,4-2,6.1c2.2-0.4,4.6,0,6.2-1.1C158.6,500.3,163.8,496.3,169.1,492.6z"/>
<path class="st18" d="M32.6,165.7c-3.9,2.8-7.7,5.7-12.1,8.4c1.3-5.3,2.9-10.8,5.3-17.4c0.6-2.6,0.6-3.9,0.6-5.3
	c-0.4,0-0.9-0.2-1.3-0.2c-0.4,1.3-0.7,2.6-1.1,4c-3.1-0.9-6.2-1.8-9.4-2.8c1.7-2.9,2.9-6.1,5-8.4c2-2.4,5-4.2,7.9-6.6
	c0.6-0.2,0.9,0,0.9,0.9c-0.7,2.4-1.5,4-2.2,5.9c2.6,0.7,5,1.3,8.6,2.2c-1.7,3.9-3.1,7-4.6,9.9C28.4,160.2,26.7,163.9,32.6,165.7z"/>
<path class="st20" d="M169.6,492.3c-5.9,4-11,8.1-16.5,11.6c-1.7,1.1-4.2,0.7-6.2,1.1c0.6-2,0.7-4.4,2-6.1c3.1-4,6.8-7.7,10.8-12.5
	c1.8-3.1,3.1-5.5,4.4-7.7c0,0,0.2,0,0.6,0.2c0.7,0.2,1.1,0.2,1.5,0.9c0,2,0,3.3,0.4,5.1c3.1,0.7,5.9,1.1,9.2,1.8
	c2,0.7,3.5,1.1,5.1,1.3c3.7,1.3,7.2,2.6,11,4.4C184.7,492.6,177.3,492.3,169.6,492.3z"/>
<path class="st15" d="M232.4,25.9c2.4-1.8,4.8-3.7,7.3-6.1c2-0.6,4-0.7,6.6-0.4c0.6,0.7,0.6,1.3,0,2.4c-13.8,10.3-27,20-40.7,29.7
	c-2.6,1.8-4.4,3.7-6.8,6.1c-3.1,0.6-5.7,0.7-8.1,0.4c1.5-2.4,2.6-4.8,4.6-6.1c11.2-7.7,22.4-15,33.9-22.6c0.7-0.4,1.1-0.7,1.7-1.5
	C231.5,26.8,232,26.3,232.4,25.9z"/>
<path class="st21" d="M452.2,186.6c-2.2-0.6-4-1.7-6.6-2.9c-0.6,0-0.6-0.2-0.6-0.2c-2-6.1-4-12.1-5.9-18.3c-1.3-4.2-2-8.8-3.5-13
	c-1.3-3.9-0.9-10.1-8.8-7.7c0.7-2,2.2-4.2,4.2-6.8c3.9,5.1,7.2,10.6,10.3,16.3c2.8,5,5,10.1,7.5,16.3c1.3,3.3,2.4,5.3,3.5,7.3
	c0,0,0,0,0.2,0.6c0.7,1.8,1.1,3.1,1.5,4.6C453.4,184,452.9,185,452.2,186.6z"/>
<path class="st18" d="M454.5,182.9c-0.9-1.1-1.5-2.6-1.5-4.4c1.1-3.1,1.8-5.9,2.6-8.4c3.5-3.7,6.4-7.9,10.5-10.8c2-1.5,5.9,0,9,0.2
	c-0.9,2.6-1.3,5.5-2.9,7.3C466.7,172.3,460.8,177.4,454.5,182.9z"/>
<path class="st18" d="M97.7,67.5c6.1-5.3,11.9-10.8,18.3-15.6c3.5-2.6,8.1-3.9,12.8-5.7c0.7,0,0.7,0,0.6,0.7
	c-10.5,7.5-20.9,14.3-31.2,21.1C98.3,67.9,97.9,67.7,97.7,67.5z"/>
<path class="st22" d="M465,238.5c-1.1,0.4-3.1,0-3.3-0.7c-2.2-10.3-4-20.7-5.9-31.9c1.8,1.5,4.8,3.7,5.3,6.2
	C463,220.6,463.7,229.2,465,238.5z"/>
<path class="st13" d="M461.5,302.8c0,1.5,0,2.8,0,4.8c-1.1,5.9-2.2,11.2-2.8,16.9c-0.9,1.7-2.2,2.8-4.2,3.1
	c-0.6-7-0.6-13.2-0.6-19.3c1.1-1.5,2.2-2.9,4-5C459.9,302.8,460.8,302.8,461.5,302.8z"/>
<path class="st7" d="M343.2,48.6c-0.7,1.5-1.8,2.4-3.5,3.9c-0.6,0.6-1.3,0.9-1.7,0.9c-0.9,0.6-1.3,0.9-1.7,1.5h-0.2
	c-1.3,0.6-2.8,1.1-4.6,1.8c0.9-2.6,2.6-5.5,4.6-9.2c-2.6-1.8-5.5-4.2-8.6-6.8C332.5,42.8,337.7,45.5,343.2,48.6z"/>
<path class="st23" d="M450.9,344.8c-0.6,0-0.6-0.2-0.7-1.1c5-5.3,9.9-10.1,15.6-15C461.3,333.8,456.4,339.1,450.9,344.8z"/>
<path class="st24" d="M157.1,484.2c-2-0.4-4.2-0.7-7-1.1c-4.8-2.2-9-4.4-13.4-7.2c6.2,1.3,12.5,3.1,19.4,5.7
	C157,482.7,157,483.5,157.1,484.2z"/>
<path class="st24" d="M118.4,464.8c5.9,2.8,11.9,5.9,18.2,9.7C130.7,471.9,124.9,468.6,118.4,464.8z"/>
<path class="st23" d="M473.4,313c1.8-1.7,3.3-3.5,5.3-4.8c0.4-0.2,3.3,2.4,3.1,3.3c-0.4,2-1.8,3.9-3.7,5.1
	C476.2,315,474.9,314.1,473.4,313z"/>
<path class="st23" d="M16.2,389.7c0,3.3-0.6,6.6-0.7,10.5c-1.5,0.2-3.3-0.4-5-0.9C12.2,396.1,14,393,16.2,389.7z"/>
<path class="st23" d="M470.3,320.9c-2.2,0.6-4.4,0.9-7.3,1.1c1.5-2.6,3.5-4.6,6.2-6.2C470.3,318,470.3,319.4,470.3,320.9z"/>
<path class="st0" d="M470.5,321.1c-0.2-1.7-0.2-3.1-0.6-5.3c-0.2-0.7,0-0.7,0.6-0.7c0.9-0.6,1.5-0.9,1.8-1.5c0,0,0.6-0.4,0.9-0.4
	c1.7,0.9,3.1,2,4.6,3.5c0.2,0.7,0,0.9-0.6,0.9c-2.6,1.3-4.6,2.4-6.6,3.5C470.7,321.3,470.5,321.1,470.5,321.1z"/>
<path class="st21" d="M455.3,170.3c-0.2,2.4-0.9,5-2.4,7.5c-0.6,0-0.7,0-0.7-0.6c0.6-2.4,1.1-4.2,1.7-6.1
	C454.2,171.2,454.5,170.8,455.3,170.3z"/>
<path class="st23" d="M470.7,321.8c2-1.7,3.9-2.8,6.4-4c-1.3,1.8-3.1,3.7-5.7,5.7C470.9,322.9,470.9,322.6,470.7,321.8z"/>
<path class="st18" d="M453.3,171.4c0,1.8-0.6,3.7-1.1,6.1c-1.1-1.5-2.4-3.5-3.5-6.1C450.1,170.8,451.4,171,453.3,171.4z"/>
<path class="st24" d="M110.9,461.3c2,0.4,4.4,1.1,7.2,2.6C115.9,463.5,113.7,462.6,110.9,461.3z"/>
<path class="st25" d="M476,36.7c0.4-1.7,0.7-3.1,1.1-4.8c0.7,0.2,1.5,0.6,2.2,0.7c-0.7,1.3-1.3,2.6-2.6,3.9
	C476,36.7,476,36.7,476,36.7z"/>
<path class="st13" d="M210.7,499.2c2-0.2,4.8-0.2,8.3,0C217,499.2,214.2,499.4,210.7,499.2z"/>
<path class="st23" d="M20.6,385.9c-0.4,1.1-1.5,2-3.1,3.1C18.1,387.9,19,386.8,20.6,385.9z"/>
<path class="st23" d="M17.9,399.8c0.2-1.1,1.1-2.2,2.4-3.3C20.1,397.4,19.4,398.5,17.9,399.8z"/>
<path class="st23" d="M461.7,322.8c0.2,0.6,0.2,1.5-0.2,1.8C461.2,323.7,461.2,323.3,461.7,322.8z"/>
<path class="st17" d="M297.7,29.2c0,0.2-0.6,0-0.7,0C297,29,297.7,28.8,297.7,29.2z"/>
<path class="st23" d="M471.8,313.6c0,0.4-0.4,0.9-1.3,1.5C470.5,314.5,470.9,313.9,471.8,313.6z"/>
<path class="st23" d="M22.7,384.2c0.2,0.4,0,0.7-0.6,1.1C21.7,384.9,21.9,384.6,22.7,384.2z"/>
<path class="st23" d="M448.9,352.1c-0.4-0.2-0.4-0.6,0-1.1C449.2,351.2,449.2,351.4,448.9,352.1z"/>
<path class="st26" d="M8.2,334.3c0.2,0.6-0.2,0.9-1.3,1.3C6.7,335,7.1,334.7,8.2,334.3z"/>
<path class="st27" d="M243.6,497.2c-9.9,0.2-19.3,0.4-28.6,0c-2,0-5.7-1.1-5.9-2.4c-0.6-2.2,0-5.7,1.7-7.3
	c6.1-6.2,12.7-11.9,19.3-17.8c1.3-1.1,3.3-1.7,5-1.7c12.7-0.7,25.3-1.3,38.9-1.8c-8.8,9.5-18.3,18.9-28.3,28.8
	C244.7,495.9,244.3,496.3,243.6,497.2z"/>
<path class="st28" d="M420.1,335.8c1.1,0,2,0,3.9,0c-9.9,22.2-20.5,44-36.9,63.1c-10.1,11.9-21.8,21.3-34.9,30.5
	c-0.7,0.2-0.9,0-0.7-0.7c11.6-11.9,23.7-22.9,34.3-35c7.3-8.4,12.7-18.7,19.3-28.3c0.7-0.9,0.9-1.5,1.7-2.6c0.9-1.8,1.3-3.3,2.2-4.8
	c1.3-1.5,2.2-2.6,2.9-3.9c0,0,0,0,0.6-0.4c0.9-2,1.3-3.7,1.8-5.5c0.2-0.2,0-0.7,0.6-1.1C416.9,343.1,418.4,339.4,420.1,335.8z"/>
<path class="st28" d="M280.1,466c-1.8-1.5-3.1-2.6-4.6-4c10.5-3.7,21.1-5.9,31-10.1c13.2-5.7,25.9-12.8,38.9-19.3
	c0.2,0.2,0.6,0.6,0.6,0.6c-11.9,7.2-23.5,15-35.8,21.5C300.8,459.4,290.3,462.6,280.1,466z"/>
<path class="st28" d="M453.4,308.4c0.6,5.9,0.6,12.1,0.6,19.1c-1.7,0.6-3.3,0.2-5-1.1c2-8.6-3.7-6.8-7.5-7.3
	C445.4,315.8,449,312.3,453.4,308.4z"/>
<path class="st29" d="M441.2,319.6c4,0.2,9.9-1.7,7.7,6.4c-4,0.9-5.5,9.5-10.8,2.6c0.6-2.6,0.9-4,1.5-5.7
	C439.9,322,440.4,321.1,441.2,319.6z"/>
<path class="st28" d="M438.8,323.1c0.2,1.3-0.2,2.8-0.9,4.8c-1.7,0.4-3.1,0.4-5.1,0.4C434,326.8,436,325.1,438.8,323.1z"/>
<path class="st28" d="M351.6,429.5c-1.5,1.1-2.9,2.4-5,3.5c-0.6,0-0.9-0.4-0.7-0.9c2-1.3,3.9-2,5.5-2.8
	C351.4,429.3,351.4,429.5,351.6,429.5z"/>
<path class="st28" d="M430.5,330.1c0-0.4,0.2-0.9,1.1-1.7C431.6,328.8,431.2,329.4,430.5,330.1z"/>
<path class="st30" d="M179,459.3c1.5-0.6,2.8-0.6,4.8-0.2c0.9,0.9,1.1,1.5,0.7,2.4c-6.4,6.2-12.5,11.9-18.3,17.6
	c-0.4,0-0.7-0.2-1.5-0.4C169.1,472.5,173.8,466.2,179,459.3z"/>
<path class="st30" d="M157.5,484.6c-0.4-1.1-0.4-1.8-0.4-3.1c2-1.3,3.9-2,6.4-2.8c-0.7,2.2-2,4.4-3.7,7
	C158.8,485.7,158.2,485.3,157.5,484.6z"/>
<path class="st31" d="M110.9,420.2c1.5,3.1,2.9,6.2,4.8,9.9c-7.3,6.2-13,16.5-25.3,15.2c0.4-0.9,0.7-1.7,1.1-2.6
	c-3.7-3.5-7.3-6.8-11-10.5c-3.9-3.9-7.7-7.7-11-11.9c-6.6-8.8-12.8-17.8-19.4-27.3c5.1-6.6,10.5-12.5,16.9-18.3
	c5.5,5.3,9.9,10.5,14.3,15.6c7.3,8.8,14.3,17.6,21.8,26.1C104.9,418.5,108.3,419.1,110.9,420.2C111.1,420.2,110.9,420.2,110.9,420.2
	z"/>
<path class="st7" d="M110.9,419.4c-2.6-0.6-6.1-0.9-7.9-2.9c-7.5-8.4-14.7-17.4-21.8-26.1c-4.4-5.3-8.8-10.5-13.8-16
	c-0.6-2.4-0.6-4.2-0.6-6.8c4.4,5.1,8.6,11.2,13.4,16.7C90.4,396,100.6,407.3,110.9,419.4z"/>
<path class="st29" d="M365.8,103c-1.1-0.7-2.2-1.7-3.5-2.8c3.7-5.3,7.7-10.3,12.7-16.3c5,1.7,12.1,3.9,20,6.1
	c1.3,0.2,1.8,0.6,2.2,1.5c-5,4.8-9.9,9-15.8,12.8c-3.7-2.9-6.4-5.5-9.4-7.9c-0.7,2.2-1.7,4.4-2.9,6.6
	C367.6,102.8,366.7,102.8,365.8,103z"/>
<path class="st28" d="M369.6,102.8c0.7-2.2,1.7-4.4,2.4-6.6c2.9,2.4,5.7,5,8.6,7.9c-1.3,2.8-2.6,4.8-4.4,7.2
	c-2.4-0.4-4.2-1.3-6.2-2.8c-0.2-0.7,0-0.9,0.6-0.9C370.7,106.1,370.2,104.4,369.6,102.8L369.6,102.8z"/>
<path class="st21" d="M415.7,168.6c-1.7-2.4-2.9-5.1-4.4-8.4c2.6-4.4,5.5-8.1,9-11.7C419.1,154.9,417.7,161.7,415.7,168.6z"/>
<path class="st21" d="M425.6,144.6c-0.7,1.3-2,2.6-4,3.9C422.3,147.2,423.5,145.9,425.6,144.6z"/>
<path class="st16" d="M252.4,53.6c-7.5-0.2-14.9-0.2-24-0.4c-4.2-0.2-6.8-0.4-9-1.1c7.5-1.8,14.9-2.9,22-4.4
	c6.2-1.1,12.5-2.6,18.7-4c2.6-0.6,5-1.8,7.2-2.2c-0.4,1.7-0.7,2.8-1.1,3.9c0,0-0.6,0.2-1.5,0.4c-1.8,1.3-2.8,2.4-3.9,3.5
	c-0.6,0.4-1.1,0.7-1.8,1.5c-1.5,1.1-2.9,1.8-5.1,2.6C253.1,53.4,252.4,53.6,252.4,53.6z"/>
<path class="st7" d="M316.4,68.8c-6.4-1.8-12.7-4-19.4-6.6c5.9,1.1,12.1,2.6,19.1,4.2C316.8,67.2,316.6,67.7,316.4,68.8z"/>
<path class="st17" d="M266.9,45.7c-0.4-1.1,0-2.2,0.6-4c0-0.6,0.2-0.7,0.7-0.7c1.8-1.3,3.3-2.6,4.6-4c0-0.2,0,0.2,0.6,0
	c0.9-0.6,1.3-1.1,2.2-1.8c0.7-0.6,1.1-0.9,1.1-1.5c1.1-0.4,2.2-0.6,4-0.9C276.6,36.9,272,41.3,266.9,45.7z"/>
<path class="st17" d="M281.7,32.5c2.6-2.2,5.7-4.2,9-5.7C288,29,285.2,30.9,281.7,32.5z"/>
<path class="st7" d="M330.2,56.9c-2.4,2-5.5,3.9-9,6.1C323.6,61.1,326.5,58.9,330.2,56.9z"/>
<path class="st7" d="M287,59.1c-1.3,0.4-2.9,0.2-4.8-0.4C283.4,58.4,285.2,58.6,287,59.1z"/>
<path class="st17" d="M261.5,49.4c0.4-1.1,1.5-2.2,2.9-3.1C264.1,47.4,263.2,48.3,261.5,49.4z"/>
<path class="st7" d="M319.5,64.2c-0.2,0.7-0.9,1.3-2.2,2C317.5,65.7,318.2,65,319.5,64.2z"/>
<path class="st7" d="M291.6,60.4C291.6,60.4,291.6,60.8,291.6,60.4C291.6,60.4,291.6,60.6,291.6,60.4z"/>
<path class="st21" d="M444.8,183.5c1.3,4.4,2.6,8.8,3.9,13.6c-17.4,0-17.4,0-19.6-11c2.6,0.7,5,1.5,8.6,2.6c-2-3.1-3.3-5.1-6.2-9.7
	c5.5,2,8.8,3.3,12.8,4.4C444.8,183.5,444.8,183.5,444.8,183.5z"/>
<path class="st32" d="M419.5,184.8c-0.6-0.4-1.3-1.5-1.8-3.1C418.2,182,419,183.1,419.5,184.8z"/>
<path class="st32" d="M426.5,206.8c-0.4,0-0.9-0.6-1.3-1.7C425.6,205.1,426.1,205.7,426.5,206.8z"/>
<path class="st33" d="M426.8,322.8c-0.6-1.8-0.4-3.9-0.4-6.4c1.1-5.7,2.4-10.8,3.7-16.5c2.6,1.7,7.2,5,6.6,6.1
	C434.4,311.7,439.3,322.2,426.8,322.8z"/>
<path class="st33" d="M461.9,302.2c-1.1,0.7-2,0.7-3.5,0.7c-4.4-1.5-8.3-3.1-12.7-4.8c4.8-3.1,10.5-6.8,16.7-10.3
	C462.6,292.5,462.4,296.9,461.9,302.2z"/>
<path class="st33" d="M433.3,284.4c-0.6-1.5-0.7-3.1-0.7-5.5c0.2-0.7,0.6-0.6,0.7-0.4C438.8,280.2,437.5,282.2,433.3,284.4z"/>
<path class="st33" d="M432,292.5c-0.2-0.2-0.4-0.6-0.6-1.1c0-0.2,0.2-0.6,0.4-1.1C432.2,290.8,432.2,291.6,432,292.5z"/>
<path class="st33" d="M432.4,289.7c-0.4-0.2-0.4-0.6-0.4-1.3c0.4-0.2,0.7,0.2,0.9,0.6C433.1,289.2,432.9,289.4,432.4,289.7z"/>
<path class="st34" d="M39.7,286.1c0.9,2.8,1.1,5.3,1.5,8.8c0,7-0.9,13.2,0.6,19.1c1.5,5.7,2,9.5-3.3,13.4
	c-4.6,3.3-8.3,7.9-12.7,11.6c-1.1,0.9-3.7-0.2-6.1-1.5c0.2-2.8,0.6-4.4,1.5-6.1c3.5-6.4,2-9.9-5.5-10.1c-1.7-8.6-3.7-17.2-4.6-26.1
	c-0.4-3.9,0.7-9.4,3.5-11.9c5.9-5.5,13.2-9.7,19.6-14.1C36.1,275.6,37.5,280.7,39.7,286.1z"/>
<path class="st21" d="M15.7,321.7c7.3-0.4,9,3.1,5.5,9.4c-0.9,1.5-1.3,3.3-1.8,5.7C18.1,332.5,16.8,327.5,15.7,321.7z"/>
<path class="st34" d="M338.4,53.4c0,0,0.6-0.4,0.9-0.4c4,0.9,7.9,1.8,11.6,3.1c4.6,1.5,9,3.5,13.4,5.1c-9,16.9-24.2,20-40.2,7.3
	c4-4,8.1-8.3,12.1-13c0-0.7,0-0.6,0.6-0.7C337.9,54.3,338.2,54,338.4,53.4z"/>
<path class="st35" d="M444.5,263.7c-2.8,2.4-5,4.4-8.4,7.5c0-16-1.5-31,0.7-45.7c0.7-5.7,9.5-10.3,15.4-16.3
	c3.5,14.3,6.2,26.1,9.4,38.7C457.1,252.1,451.1,257.8,444.5,263.7z"/>
<path class="st35" d="M472.7,242.6c-1.5,0-2.4-0.6-3.3-0.9c0.7-0.7,1.7-1.7,2.4-2.4C472.2,240.2,472.7,241.1,472.7,242.6z"/>
<path class="st35" d="M476.9,237.4C476.9,237.4,476.7,237.6,476.9,237.4z"/>
<path class="st36" d="M360.1,99.3c-0.2,0.2-0.7,0.2-1.1-0.4C359.1,98.7,359.5,98.9,360.1,99.3z"/>
<path class="st37" d="M166,479.8c6.1-6.4,11.9-12.1,18.9-18.2c3.5-0.2,6.1,0,8.6,0.2c2.6,1.8,5.3,3.5,10.5,7
	c-5.1,2.6-9.4,4-12.7,6.8c-3.9,3.1-7,7.5-10.5,11.9c-1.7,0.4-3.3,0-5.3-1.3c-3.5-1.3-6.4-1.5-9.5-1.7C166,483.1,166,481.8,166,479.8
	z"/>
<path class="st38" d="M173.1,65.5c-20.7,5-38.7,15-54.1,29.7c-14.3,13.6-28.1,27.9-42.6,42.4c-5.5,3.1-10.5,5.7-15.2,8.8
	c-8.3,5.3-16.3,11.2-25.3,17.1c-1.3,0.7-1.7,1.1-1.8,1.7c0,0-0.7,0.4-1.3,0.6c-6.1-1.8-4.4-5.5-2.6-9.4c1.5-3.1,2.9-6.2,4.6-9.9
	c-3.7-0.9-6.1-1.7-8.6-2.2c0.9-2,1.7-3.5,2.4-5.9c7.7-7,16.1-12.5,22.8-19.6c13.9-14.7,27-30.3,40.5-45.3c1.7-1.8,3.9-2.9,6.1-5
	c10.6-7.3,20.9-14.3,31.6-21.6c12.3-5,24.2-9.7,36.1-13.9c18.3-6.4,37.1-11.2,56.7-10.8c3.1,0,6.2,1.7,9.7,3.1
	c0,1.1-0.4,1.7-1.7,2.6c-1.3,0.6-1.5,0.9-1.7,1.5c-11.2,7.5-22.6,14.9-33.6,22.6c-1.8,1.3-2.9,3.7-5.1,6.2c-2.6,1.8-4.4,2.9-6.4,4
	c0,0-0.4-0.4-1.3-0.2C178.4,63.1,175.9,64.4,173.1,65.5z"/>
<path class="st39" d="M48.5,188.8c-0.7,0-1.5,0.2-3.5,0.4c-5.3,5.1-9.2,10.3-13.2,15.2c-2.8-9.5-12.7-15-9-24.8
	c13-9.7,26.1-19.4,39.8-28.6c0.6,2,0.6,3.3-0.2,5c-2,4.4-3.5,8.4-4.8,12.7c0,0,0,0-0.7,0c-1.3,1.3-2,2.6-3.3,4.2
	C51.7,178.5,50,183.7,48.5,188.8z"/>
<path class="st35" d="M41.4,211c-0.2,16.1-14.5,20.9-24.2,29.4c-2.6,2.2-6.1,3.7-10.3,6.2c0.2-4.2,0.4-6.6,0.2-9.7
	c-0.4-1.1-0.4-1.8,0-3.7c0.7-2.6,0.9-4.2,1.1-5.9c0,0,0.2-0.7,0.6-1.7c0.7-3.1,0.9-5.3,1.1-7.5c0.6-1.5,1.3-2.9,2.6-5
	C22.3,206.2,32,211.8,41.4,211z"/>
<path class="st40" d="M41.9,210.5c-9.9,1.3-19.4-4.4-29.2,2.2c-0.2-2.6,0.4-5.1,1.7-8.4c9.9-4.2,10.1-5,2.9-15.4
	c1.3-2.9,2.8-6.1,4.8-9.2c-2.9,9.7,7,15,9.7,24.6c4-5.1,8.1-10.1,12.7-15.2C44.3,196.2,43.4,202.9,41.9,210.5z"/>
<path class="st39" d="M16.8,189.4c7.5,9.9,7.3,10.8-2.4,14.3C14.6,199.1,15.5,194.5,16.8,189.4z"/>
<path class="st16" d="M63,155.8c0-1.5,0.2-2.8,0.2-4.8c1.3-0.4,2.4,0,3.7,1.1c0,0.9,0,1.1-0.7,2C64.9,155.1,64.1,155.6,63,155.8
	C63.2,156,63,155.8,63,155.8z"/>
<path class="st16" d="M9.6,218.9c0.2,1.7,0,3.9-0.7,6.6C8.7,223.7,8.9,221.5,9.6,218.9z"/>
<path class="st16" d="M7.8,227.9c0.2,1.3,0,2.8-0.7,5C6.9,231.8,7.1,230.1,7.8,227.9z"/>
<path class="st18" d="M34.4,165c-0.2-0.4,0-0.9,0.9-1.3C35.5,164.2,35.3,164.6,34.4,165z"/>
<path class="st40" d="M276.4,32.9c0,1.3-0.4,1.7-1.7,2.2c-1.3,0.7-1.7,1.3-2,1.8c0,0-0.2-0.2-0.7-0.2c-1.8,1.5-3.1,2.8-4.4,4.2
	c0,0,0,0,0,0.2c-2.4,0.9-4.8,2.2-7.3,2.8c-6.2,1.5-12.5,2.9-18.7,4c-7.3,1.3-14.7,2.4-22.8,4.4c-1.7,0.7-2.4,0.7-3.7,0.4
	c-3.3-0.7-6.2-0.9-9-1.1c13.2-9.7,26.4-19.4,40.2-29.4c11.2,1.1,21.8,2.6,33.2,4C278.1,28.7,277.1,30.5,276.4,32.9z"/>
<path class="st41" d="M238.6,465.1c0.9-0.4,2.4-0.6,4.4-0.7C242.1,464.8,240.6,465.1,238.6,465.1z"/>
<path class="st15" d="M48.5,189.6c1.5-5.9,3.1-11,5.7-16.7c1.8-1.8,2.6-2.9,3.3-4.2c0,0,0,0,0.6-0.2c1.3-1.3,2.2-2.2,2.9-3.1
	c-0.7,3.5-1.1,7.3-2.4,10.6c-2.6,6.2-5.7,12.3-9.2,18.7C48.7,193.6,48.7,191.9,48.5,189.6z"/>
<path class="st42" d="M24.1,155.6c0-1.7,0.4-2.9,0.7-4.2c0.4,0,0.9,0.2,1.3,0.2c0,1.5,0,2.8-0.4,4.6
	C25.1,156.3,24.9,156.2,24.1,155.6z"/>
<path class="st14" d="M166.5,484.9c2.6-0.4,5.5-0.2,8.6,0.7C172.4,486,169.6,485.7,166.5,484.9z"/>
<path class="st43" d="M215.5,53.1c0.7,0,1.7,0,3.1-0.2c3.1,0,5.7,0.2,9,0.6c-2.9,4-5.7,8.3-12.5,7.5c-2.4-0.2-5.1,4-7.5,6.1
	c-2.6-1.8-5.1-3.7-8.3-5.1c-5,0.4-9.7,0.4-15.2,0.2c0.9-1.3,2.9-2.4,5.3-3.5c3.3-0.4,5.9-0.6,9.5-1.1
	C205.6,55.8,210.5,54.3,215.5,53.1z"/>
<path class="st16" d="M214.9,52.7c-4.4,1.8-9.4,3.1-15.2,4.4c1.1-1.8,2.9-3.7,5.5-5.7C208.9,51.6,211.6,52,214.9,52.7z"/>
<path class="st18" d="M228.9,29c-0.2-0.4,0-0.7,0.9-1.1C230,28.3,229.8,28.7,228.9,29z"/>
<path class="st10" d="M338,53.4c0.2,0.6-0.2,0.9-1.1,1.3C336.8,54.3,337.1,54,338,53.4z"/>
<path class="st44" d="M409,358.2c0.2-1.1,0.9-2.4,2.4-3.9C411.3,355.4,410.3,356.7,409,358.2z"/>
<path class="st44" d="M412.5,353.8c-0.2-1.3,0.2-2.9,1.1-5C413.6,350.1,413.3,351.7,412.5,353.8z"/>
<path class="st44" d="M405.2,365.5c-0.2-0.4,0-0.9,0.7-1.8C406.1,363.8,405.9,364.6,405.2,365.5z"/>
<path class="st45" d="M224.8,307c-0.4-0.2-0.6-0.4-1.7-1.1c-1.8-0.9-2.8-1.3-3.9-1.5c0,0,0,0.2-0.4-0.6c-7.3-4.6-14.5-8.4-21.8-12.3
	c0,0,0,0.2-0.2-0.6c-9.7-5.5-11.9-14.5-13.8-24.2c-1.1-6.1-4-11.6-6.2-17.4c0,0,0,0,0-0.7c-2.6-13-5.1-25.3-7.9-37.6
	c0,0,0.6-0.2,1.7-0.2c5,2.6,9,5.1,13.2,7.5c17.2,10.1,34.5,19.8,51.6,30.5c2.9,1.8,5.5,6.8,5.7,10.3c0.6,18.5,0.2,37.1-0.6,55.8
	c-5-2.2-9.4-4.8-13.8-7.2c0,0-0.2,0.2-0.2-0.2C225.9,306.8,225.4,306.8,224.8,307z"/>
<path class="st46" d="M296.2,269.5c-1.1,6.2,1.1,13.9-8.6,16.9c-11.2,0.6-16.9,14.3-26.8,9.4c-2.4,2.8-3.9,6.1-6.2,6.8
	c-4,1.3-8.3,0.4-8.3-5.3c0.2-17.4-9.2-36.3,7.9-51.7c1.5-1.3,2.6-2.2,4.2-3.1c2-1.1,3.3-2.2,5.1-3.5c1.3-0.2,2-0.4,3.5-0.4
	c2.8-1.7,5-3.5,7.2-5.3c0,0,0.2,0,0.7,0c2-1.3,3.3-2.4,5-4c0.9-0.7,1.5-1.1,2.2-1.7c0.6-0.4,0.7-0.6,1.5-1.1
	c1.3-0.4,2.2-0.6,3.5-0.9c0.9-0.4,1.5-0.7,2-1.5c0.7-0.2,1.1-0.2,2.2-0.2c5.3-1.7,9.9-3.3,15.6-5.3c-1.7,8.4-2.8,16.1-4.4,23.7
	C300.6,251.4,298.4,260.4,296.2,269.5 M268,291.6c2.6-1.7,5.1-3.3,7.7-4.8C270.2,284.6,265.8,284,268,291.6z"/>
<path class="st47" d="M258.1,242.2c-1.1,0.9-2.2,1.8-4.4,3.1c-4,1.3-7.2,2-10.8,3.1c0-7.9,0.2-14.7,0-21.6
	c-0.4-10.1-1.1-20.4-1.7-31.2c0-1.5,0-2.2,0-3.9c0-2,0-3.5,0-5.3c0-1.5,0-2.2,0.2-3.7c0.9-3.1,1.7-5.7,2.6-8.4
	c0.2-0.4,0.7-0.9,1.3-0.6c4,1.5,7.3,2.6,10.8,3.9c12.3,6.4,24.6,12.7,36.9,19.1c5.9,3.1,11.6,6.4,17.2,10.6
	c-4.4,3.9-8.8,6.8-12.8,9.9c-2.4,1.8-4.2,4.4-6.4,6.6c-0.4,0-0.6,0-1.8,0.2c-1.5,0.6-1.8,0.9-2,1.5c-0.7,0.2-1.7,0.4-3.3,0.7
	c-1.3,0.4-1.5,0.7-1.5,1.3c-0.6,0.4-1.1,0.7-2.8,1.5c-2.2,1.7-3.7,2.9-5,4c0,0-0.2,0-0.7,0c-2.8,1.8-5,3.5-7.2,5.1
	c-0.7,0.2-1.5,0.2-3.3,0.4C260.8,240,259.3,241.1,258.1,242.2z"/>
<path class="st48" d="M164.5,189c-7.5-4.4-15.2-8.8-25.1-14.5c14.1-6.6,26.6-12.3,38.9-18.2c10.1-4.8,20-9.9,30.1-14.5
	c2.9-1.3,7-2.8,9.4-1.7c7.9,3.5,15.2,8.3,22.2,13.2C214.4,165.7,189.4,177.4,164.5,189z"/>
<path class="st49" d="M164.5,189.7c25-12.5,49.9-24,75.4-35.8c1.7,5.3,2.6,10.5,4,16.9c0.6,1.7,0.6,2.2,0.6,2.8c0,0-0.6,0.6-1.1,0.7
	c-1.3,0.2-1.8,0.2-3.1,0.2c-9.9,4-19.3,7.9-28.3,12.5c-12.7,6.4-25.1,13.4-38.2,20c-1.7,0-2.8,0.2-3.9,0.2
	C168.2,201.7,166.3,196.2,164.5,189.7z"/>
<path class="st50" d="M169.8,207.9c1.1-0.7,2.2-0.7,4.6-0.7c2.9,0.7,4.6,1.5,6.1,2.2c0,0,0,0,0.9,0c4.4,3.1,8.4,6.1,12.5,9.7
	c3.1,1.5,6.1,2.2,9.2,3.7c10.3,10.3,22.4,16,36.5,22c0-13,0-24.2,0-36.1c0-2,0-3.5,0-5.5c0.6-2.6,1.1-4.6,1.7-6.6
	c0.6,10.1,1.3,20.4,1.7,30.5c0.2,7,0,13.8,0,21.6c3.7-1.1,6.8-1.8,10.5-2.8c-16.1,15-6.8,33.8-7,51.4c0,5.7,4.2,6.6,8.3,5.3
	c2.2-0.7,3.9-4,6.2-6.8c9.9,5,15.6-8.6,26.1-9.4c-0.9,2-2,4.8-4,6.1c-8.1,5-16.3,9.4-25.5,14.7c-1.7,1.5-2.4,2.2-3.1,3.1
	c0,0-0.4,0.6-1.1,0.7c-1.8,1.1-3.3,1.8-4.6,2.6c-0.9,0.4-2,0.7-3.9,1.5c-1.8,0.2-2.6,0-3.5-0.2c0-18.5,0.6-37.1,0-55.6
	c-0.2-3.5-2.8-8.4-5.7-10.3c-16.9-10.5-34.3-20.4-51.6-30.5c-4-2.4-8.1-5-12.8-7.5C170.4,210.1,170.2,209.4,169.8,207.9z"/>
<path class="st51" d="M271.4,327.7c-2.9-7.9-1.8-14.7,4.8-19.1c6.2-4.2,14.3-1.8,18,4.4c3.9,6.6,2.6,16.3-2.8,20
	C285.6,337.2,276.4,335,271.4,327.7z"/>
<path class="st52" d="M244.8,326.4c12.1,8.3,13.9,14.7,7,23.3c-4.6,5.9-11.6,8.4-16.5,4c-4-3.7-5-11.2-6.4-17.2
	c-0.4-1.8,2-4.2,3.9-7.3C237.5,327.7,241.2,327.2,244.8,326.4z"/>
<path class="st50" d="M291.4,223.9c1.5-2.2,3.3-4.6,5.7-6.6c4-3.1,8.4-6.1,13.2-9.4c1.7,1.7,4.2,3.9,3.7,5.5
	c-3.7,16-7.7,31.7-12.1,47.3c-0.7,2.8-3.3,5.1-5.3,8.3c1.7-8.6,4-17.6,5.9-26.8c1.7-7.5,2.9-15.2,4.4-23.7
	C301.4,220.6,296.8,222.2,291.4,223.9z"/>
<path class="st32" d="M169.6,227.5c-0.6-2.6-1.3-5.1-1.8-8.4c0.2-2.8,0.4-5,1.1-7.5c3.1,11.7,5.7,24.2,8.3,37.2
	c-1.8-3.7-3.9-8.1-5.7-13.2c0-2,0-3.5-0.2-5.9C170.7,228.1,170.2,227.7,169.6,227.5z"/>
<path class="st32" d="M197.3,292.3c7.2,3.3,14.3,7.2,21.6,11.6C212,300.6,204.7,296.7,197.3,292.3z"/>
<path class="st16" d="M61.4,164.8c-1.1,1.5-2,2.6-3.3,3.7c0.9-3.9,2.4-8.1,4.4-12.5c0.6-0.2,0.7-0.2,0.7,0.6c0,1.5,0,2.4,0,3.1
	C62.7,161.1,62.1,162.8,61.4,164.8z"/>
<path class="st43" d="M173.5,66.1c2.4-1.8,5-2.9,8.4-4.2C179.7,63.5,176.8,65,173.5,66.1z"/>
<path class="st32" d="M206.7,338.2c1.1-1.1,2.6-1.8,4.6-2.4c0.2,1.7-0.2,3.1-0.7,4.8C209.3,339.8,208.2,339.3,206.7,338.2z"/>
<path class="st32" d="M248.9,313.9c0.9-1.3,2.4-2,4.4-2.8C252.2,312.3,250.7,313.4,248.9,313.9z"/>
<path class="st28" d="M365.9,103.5c0.7-0.6,1.7-0.6,3.1-0.7c0.7,0,0.7,0,0.7,0.6c0.2,1.8,0.4,3.1,0.4,4.4c0,0-0.2,0.2-0.4,0.4
	C368.5,106.8,367.2,105.3,365.9,103.5z"/>
<path class="st15" d="M63.8,159.5c-0.6-0.6-0.6-1.5-0.6-2.9c0.7-1.1,1.7-1.5,2.8-2.2C65.8,156,65,157.6,63.8,159.5z"/>
<path class="st32" d="M219.5,305c0.7-0.2,1.8,0.2,3.1,0.9C221.9,306.1,220.8,305.7,219.5,305z"/>
<path class="st32" d="M254.8,310.1c0.2-0.7,0.9-1.7,2.2-2.6C256.8,308.3,256,309,254.8,310.1z"/>
<path class="st32" d="M225,307.3c0.4-0.6,0.9-0.4,1.7,0.2c0.2,0.4-0.6,0.4-0.6,0.4S225.4,307.5,225,307.3z"/>
<path class="st29" d="M370.7,107.7c-0.7-1.3-0.9-2.6-0.9-4.4C370.2,104.4,370.7,106.1,370.7,107.7z"/>
<path class="st43" d="M252.6,54c-0.2-0.2,0.6-0.4,0.9-0.4c0.4,0.2-0.2,0.7-0.2,0.7S252.7,54.2,252.6,54z"/>
<path class="st16" d="M268.1,40.9c0.7-1.3,2-2.8,3.9-4C271.3,38.2,270,39.5,268.1,40.9z"/>
<path class="st16" d="M273.1,36.9c-0.2-0.6,0.4-1.1,1.3-1.7C274.6,35.6,274,36.2,273.1,36.9z"/>
<path class="st16" d="M57,168.8c-0.2,1.1-0.9,2.4-2.2,3.7C55,171.4,55.7,170.1,57,168.8z"/>
<path class="st50" d="M267.4,291.4c-1.7-7.3,2.8-6.6,8.3-4.8C273.1,288.3,270.5,289.9,267.4,291.4z"/>
<path class="st50" d="M267.2,238.4c1.5-1.8,3.7-3.5,6.4-5.1C272.2,234.9,270,236.7,267.2,238.4z"/>
<path class="st50" d="M275.1,233c0.7-1.3,2-2.4,4-3.7C278.4,230.7,277,231.9,275.1,233z"/>
<path class="st50" d="M258.6,242.2c0.7-1.1,2.2-2.4,4-3.5C261.9,240,260.6,241.1,258.6,242.2z"/>
<path class="st50" d="M282.3,227.3c-0.2-0.4,0-0.7,0.7-0.9C283.2,226.8,282.8,227.2,282.3,227.3z"/>
<path class="st50" d="M287.2,225.5c-0.2-0.6,0.2-0.9,1.1-1.3C288.7,224.6,288.3,225.1,287.2,225.5z"/>
<path class="st53" d="M241.2,195.8c-0.6,2.6-1.3,4.6-2.4,7.2c-4.4-3.5-8.1-7.5-12.1-12.3c-3.1,10.3-3.1,10.3-13.6,15.4
	c-1.1,0.6-1.7,1.7-2.8,2.4c-5.5,3.3-11.2,6.6-16.7,9.7c-3.9-2.9-7.7-6.1-12.3-9c-0.6-0.2-0.6-0.2-0.6-0.2c-1.7-0.6-3.3-1.3-5.7-2
	c11.7-6.8,24.2-13.8,36.9-20.2c9-4.6,18.3-8.4,28.1-11.9c0.6,3.3,0.7,5.9,0.9,8.4c0,0.9,0,1.7-0.4,3.5c-0.2,2.6,0.2,4.2,0.4,5.7
	C241.2,193.4,241.2,194.3,241.2,195.8 M223.2,188.5c-0.2-0.4-0.2-0.6-0.4-0.9C222.8,187.9,222.6,188.3,223.2,188.5z"/>
<path class="st50" d="M241.4,182.9c-0.4-2-0.6-4.6-0.6-7.7c0.7-0.7,1.5-0.7,2.4-0.6C243,177.3,242.3,179.8,241.4,182.9z"/>
<path class="st50" d="M241.2,191.9c-0.4-0.9-0.7-2.6-0.6-4.4C241.2,188.6,241.2,189.9,241.2,191.9z"/>
<path class="st51" d="M239.3,209.2c0,11.2,0,22.4,0,35.4c-13.9-6.1-26.2-11.6-36.1-22.6C214.4,214.1,224.5,204.2,239.3,209.2z"/>
<path class="st54" d="M239.3,208.5c-14.9-4.2-25,5.7-36.5,13c-3.1-0.4-6.1-1.1-9.2-2.6c5.3-3.9,10.8-7,16.5-10.5
	c0.9-0.6,1.7-1.8,2.8-2.4c10.5-5.3,10.6-5.3,13.6-15.4c4,4.6,7.7,8.8,12.1,12.8C239.3,205,239.3,206.4,239.3,208.5z"/>
<path class="st53" d="M180.6,209.2c-0.2,0-0.4,0.2-0.2,0.2C180.6,209.2,180.6,209.2,180.6,209.2z"/>
<path class="st55" d="M211.8,313.8c-0.4,4.6,0.4,9.4-1.1,13.4c-2,5.9-7.7,9-13,6.4c-4.6-2.2-10.3-7.5-10.5-11.7
	c-0.2-4.8,4.2-11.2,8.4-14.1c2.6-1.7,8.8,1.8,13.2,3.3c0.7,0.2,1.3,1.3,2.4,2.4C211.8,313.9,211.8,313.8,211.8,313.8z"/>
<path class="st56" d="M169.8,227.9c0.4-0.2,0.9,0.2,1.5,1.1C170.9,229.2,170.4,228.8,169.8,227.9z"/>
<path class="st54" d="M222.8,188.5c-0.2-0.4-0.2-0.6,0-0.9C223,187.9,223,188.3,222.8,188.5z"/>
</svg>
